<svg width="59" height="40" viewBox="0 0 59 40" fill="none" xmlns="http://www.w3.org/2000/svg">
    <path d="M54.471 21.5374C56.7095 19.248 58.1001 16.1276 58.1001 12.6681C58.1001 5.66417 52.419 0 45.432 0C41.9725 0 38.8521 1.3906 36.5627 3.62914L24.5391 15.6528L30.5424 21.6561L48.4507 39.5644L54.471 33.5441L48.4846 27.5747L54.5049 21.5544L54.471 21.5374ZM48.5016 15.551L42.4813 21.5544L36.5457 15.6189L42.5321 9.5816C43.2953 8.86934 44.3128 8.42842 45.432 8.42842C47.7723 8.42842 49.6547 10.3278 49.6547 12.6511C49.6547 13.7873 49.2138 14.8049 48.5016 15.551Z"
          fill="#080808"/>
    <path d="M29.1179 23.1485L28.6431 22.6736L23.1146 17.1451L20.2994 19.9264L19.3498 20.893C18.1796 21.8596 16.6703 22.4532 15.0253 22.4532C11.2775 22.4532 8.22492 19.4176 8.22492 15.6528C8.22492 11.888 11.2605 8.85239 15.0253 8.85239C16.772 8.85239 18.3662 9.51377 19.5702 10.5991L23.0976 14.1774L28.6431 8.63193L29.1179 8.15709L26.5741 5.6133C23.7929 2.44204 19.7228 0.457886 15.1779 0.457886C6.8004 0.457886 0 7.25828 0 15.6358C0 24.0134 6.8004 30.8138 15.1779 30.8138C17.9931 30.8138 20.6217 30.0506 22.8771 28.7279L22.8093 28.7957L29.0501 35.0365L35.0534 29.0331L29.1179 23.1485Z"
          fill="#DE3F0F"/>
</svg>
