<svg width="238" height="161" viewBox="0 0 238 161" fill="none" xmlns="http://www.w3.org/2000/svg">
<path d="M222.198 87.7146C231.324 78.4749 237.028 65.691 237.028 51.6415C237.028 23.1627 213.832 0 185.313 0C171.244 0 158.442 5.69576 149.189 14.809L100.137 63.6659L124.6 88.0943L197.608 161L222.071 136.572L197.735 112.27L222.198 87.7146ZM197.862 63.4127L173.272 87.8412L149.063 63.6659L173.526 39.1109C176.568 36.1997 180.75 34.4277 185.313 34.4277C194.82 34.4277 202.552 42.1486 202.552 51.6415C202.552 56.1981 200.777 60.375 197.862 63.4127Z" fill="#080808"/>
<path d="M118.766 94.296L116.738 92.2709L94.3028 69.741L82.8952 81.1325L78.9659 85.0562C74.1494 88.98 68.0653 91.3848 61.3475 91.3848C46.0106 91.3848 33.7158 78.9808 33.7158 63.7921C33.7158 48.6034 46.1374 36.1993 61.3475 36.1993C68.4456 36.1993 74.9099 38.8573 79.8531 43.2874L94.176 57.8432L116.738 35.3133L118.639 33.4147L108.245 23.0358C97.0913 10.1254 80.3602 2.02478 61.8545 2.02478C27.7585 2.02478 0 29.7441 0 63.7921C0 97.84 27.7585 125.559 61.8545 125.559C73.2621 125.559 84.0359 122.395 93.162 117.079L92.9085 117.332L118.385 142.773L142.848 118.345L118.766 94.296Z" fill="#DE3F0F"/>
</svg>
