<svg width="16" height="15" viewBox="0 0 16 15" fill="none" xmlns="http://www.w3.org/2000/svg">
    <path d="M3.21001 14.5971C2.38311 14.5972 1.58934 14.2721 1.00001 13.6921L0.935009 13.6271C0.638911 13.3382 0.40364 12.9929 0.24306 12.6116C0.0824804 12.2304 -0.000159847 11.8208 9.23908e-06 11.4071C-0.00103717 10.9592 0.0868129 10.5156 0.258469 10.1019C0.430125 9.68818 0.682173 9.31267 1.00001 8.9971L8.75001 1.3321C9.53744 0.512229 10.6154 0.0344712 11.7517 0.00173847C12.888 -0.0309943 13.9917 0.383917 14.825 1.15709C15.2008 1.53199 15.4983 1.97795 15.7 2.46897C15.9018 2.96 16.0037 3.48626 16 4.0171C15.9956 4.60995 15.874 5.19608 15.6423 5.74181C15.4107 6.28753 15.0734 6.7821 14.65 7.19709L7.68501 14.0971C7.64171 14.1553 7.58626 14.2035 7.5225 14.2381C7.45874 14.2728 7.38819 14.2931 7.31577 14.2978C7.24335 14.3024 7.17079 14.2912 7.10312 14.265C7.03545 14.2388 6.9743 14.1982 6.92391 14.146C6.87352 14.0937 6.83511 14.0312 6.81133 13.9626C6.78756 13.894 6.77899 13.8211 6.78623 13.7489C6.79348 13.6767 6.81635 13.6069 6.85326 13.5444C6.89018 13.482 6.94025 13.4283 7.00001 13.3871L13.945 6.48709C14.2748 6.16513 14.5378 5.78119 14.7189 5.35732C14.8999 4.93345 14.9955 4.47799 15 4.0171C15.0036 3.61822 14.9277 3.22262 14.7766 2.85346C14.6255 2.48429 14.4023 2.14896 14.12 1.86709C13.4739 1.27853 12.6226 0.967105 11.7492 0.999833C10.8759 1.03256 10.0502 1.40682 9.45001 2.04209L1.72501 9.7071C1.49736 9.92814 1.31601 10.1923 1.19154 10.4842C1.06706 10.7761 1.00195 11.0898 1.00001 11.4071C0.998941 11.6857 1.05319 11.9618 1.15962 12.2193C1.26605 12.4767 1.42254 12.7105 1.62001 12.9071L1.68501 12.9721C2.13239 13.3841 2.72364 13.6039 3.33148 13.5843C3.93933 13.5646 4.51516 13.3071 4.93501 12.8671L11.61 6.2671C11.7362 6.13946 11.8358 5.98794 11.9027 5.82138C11.9697 5.65483 12.0028 5.47659 12 5.2971C12.0011 5.14119 11.9712 4.98663 11.9119 4.84242C11.8527 4.6982 11.7654 4.56722 11.655 4.4571C11.4025 4.22555 11.0691 4.10259 10.7267 4.11475C10.3843 4.12691 10.0604 4.27322 9.82501 4.5221L5.22501 9.0821C5.13086 9.17558 5.00342 9.22784 4.87074 9.22737C4.73806 9.2269 4.611 9.17375 4.51751 9.0796C4.42402 8.98544 4.37176 8.85801 4.37223 8.72533C4.3727 8.59265 4.42586 8.46558 4.52001 8.3721L9.14001 3.7971C9.56349 3.36326 10.1406 3.11329 10.7467 3.10113C11.3528 3.08897 11.9395 3.31559 12.38 3.7321C12.5826 3.93834 12.7419 4.18308 12.8483 4.45187C12.9548 4.72066 13.0064 5.00805 13 5.2971C12.9995 5.60836 12.9368 5.91638 12.8158 6.20314C12.6947 6.48989 12.5177 6.74961 12.295 6.9671L5.64001 13.5871C4.99496 14.2311 4.12153 14.5942 3.21001 14.5971Z"
          fill="#828282"/>
</svg>